<?xml version="1.0" encoding="UTF-8" standalone="no"?>
<svg
   version="1.1"
   id="Layer_1"
   x="0px"
   y="0px"
   viewBox="0 0 122.88 97.05"
   style="enable-background:new 0 0 122.88 97.05"
   xml:space="preserve"
   sodipodi:docname="module_image.svg"
   inkscape:version="1.2.2 (b0a8486541, 2022-12-01)"
   inkscape:export-filename="../../../../../../Downloads/module_image.png"
   inkscape:export-xdpi="347.45166"
   inkscape:export-ydpi="347.45166"
   xmlns:inkscape="http://www.inkscape.org/namespaces/inkscape"
   xmlns:sodipodi="http://sodipodi.sourceforge.net/DTD/sodipodi-0.dtd"
   xmlns:xlink="http://www.w3.org/1999/xlink"
   xmlns="http://www.w3.org/2000/svg"
   xmlns:svg="http://www.w3.org/2000/svg"><defs
     id="defs9"><linearGradient
       inkscape:collect="always"
       id="linearGradient1095"><stop
         style="stop-color:#ce2c8d;stop-opacity:1;"
         offset="0"
         id="stop1091" /><stop
         style="stop-color:#ffffff;stop-opacity:1"
         offset="1"
         id="stop1093" /></linearGradient><linearGradient
       inkscape:collect="always"
       xlink:href="#linearGradient1095"
       id="linearGradient1097"
       x1="65.836899"
       y1="43.841801"
       x2="-4.2705827"
       y2="-88.977081"
       gradientUnits="userSpaceOnUse" /></defs><sodipodi:namedview
     id="namedview7"
     pagecolor="#ffffff"
     bordercolor="#666666"
     borderopacity="1.0"
     inkscape:pageshadow="2"
     inkscape:pageopacity="0.0"
     inkscape:pagecheckerboard="0"
     showgrid="false"
     inkscape:zoom="1.3704276"
     inkscape:cx="-54.727444"
     inkscape:cy="62.389286"
     inkscape:window-width="1878"
     inkscape:window-height="1011"
     inkscape:window-x="42"
     inkscape:window-y="32"
     inkscape:window-maximized="1"
     inkscape:current-layer="layer2"
     inkscape:showpageshadow="2"
     inkscape:deskcolor="#d1d1d1" /><g
     inkscape:groupmode="layer"
     id="layer2"
     inkscape:label="Layer 2"><path
       sodipodi:type="star"
       style="fill:url(#linearGradient1097);fill-opacity:1;stroke:#3bb0f4;stroke-width:0;stroke-miterlimit:4;stroke-dasharray:none"
       id="path859"
       inkscape:flatsided="true"
       sodipodi:sides="4"
       sodipodi:cx="63.406307"
       sodipodi:cy="46.851624"
       sodipodi:r1="86.300095"
       sodipodi:r2="61.02338"
       sodipodi:arg1="0.78539816"
       sodipodi:arg2="1.5707963"
       inkscape:rounded="0.15"
       inkscape:randomized="0"
       d="m 124.42969,107.87501 c -12.94501,12.94501 -109.10175,12.94501 -122.0467647,0 -12.9450143,-12.945018 -12.9450143,-109.1017541 -4e-7,-122.046768 12.9450141,-12.945015 109.1017451,-12.945015 122.0467651,-10e-7 12.94501,12.9450144 12.94501,109.10175 0,122.046769 z"
       inkscape:export-filename="/home/marc/www/hhdev/protected/modules/module-model/resources/module_image.png"
       inkscape:export-xdpi="347.45001"
       inkscape:export-ydpi="347.45001" /><g
       id="g1058"
       transform="matrix(1.036262,0,0,1.1813721,-1.3825958,-0.53246083)"
       style="fill:#ffffff"><path
         class="st0"
         d="M 29.7,21.41 27.12,4.89 c 25.32,-6.26 42.13,-6.78 68.66,0 l -2.72,16.52 c -25.65,-6.87 -40.67,-6 -63.36,0 z m 64.79,1.44 2.26,-12.09 c 9.16,2.02 17.5,4.9 26.13,8.38 l -17.61,1.84 c 3.02,3.4 5.78,7.1 8.28,11.07 -9.75,-3.46 -18.44,-6.03 -25.71,-7.39 l 0.5,-3.25 z M 28.39,23.11 26.13,11.02 C 16.97,13.04 8.62,15.91 0,19.4 l 17.61,1.84 c -3.02,3.4 -5.78,7.1 -8.28,11.07 9.75,-3.46 18.44,-6.03 25.71,-7.39 l -0.5,-3.25 z"
         id="path1056"
         style="clip-rule:evenodd;fill:#ffffff;fill-rule:evenodd" /></g><path
       fill-rule="nonzero"
       d="m 76.758237,93.499132 v 5.899744 H 25.204957 V 93.499132 Z M 85.55834,52.91673 v 5.899757 H 25.204957 V 52.91673 Z m 23.34816,13.525723 v 5.90184 H 25.204957 v -5.90184 z M 58.445256,79.970271 v 5.900787 H 25.204957 v -5.900787 z"
       id="path5758"
       style="fill:#ffffff;stroke-width:0.130898" /></g><g
     inkscape:groupmode="layer"
     id="layer1"
     inkscape:label="Layer 1" /></svg>
